<?xml version="1.0" encoding="utf-8"?>
<!-- Generator: Adobe Illustrator 25.3.1, SVG Export Plug-In . SVG Version: 6.00 Build 0)  -->
<svg version="1.1" xmlns="http://www.w3.org/2000/svg" xmlns:xlink="http://www.w3.org/1999/xlink" x="0px" y="0px"
	 viewBox="0 0 300 300" style="enable-background:new 0 0 300 300;" xml:space="preserve">
<style type="text/css">
	.st0{display:none;fill:none;stroke:#000000;stroke-miterlimit:10;}
	.st1{fill:#FFFFFF;}
	.st2{fill:#C7B07B;}
	.st3{fill:#C7B07B;stroke:#FFFFFF;stroke-miterlimit:10;}
	.st4{fill:#C7B07B;stroke:#C7B07B;stroke-miterlimit:10;}
	.st5{font-family:'JuliusSansOne-Regular';}
	.st6{font-size:23.6244px;}
</style>
<g id="Layer_2">
	<path class="st0" d="M210.6,123.5c-1-1.7-3.4-2.1-6.5-2c1.4,1.9,2.8,3.7,3.7,6.6c-3.7-4.8-6.7-4.5-8.6-4.5c6.6,5.9,5.5,10,5.5,10
		s-4.1-1.2-5.7-1.7c-0.7,4,1.6,5.1,4.1,7s3.9,4.3,4,6.2c-1.8-1.6-0.9,2.1-0.3,2.5s0.1,1.4,0,4c-0.9-1.2-1-0.3-0.7,1.6
		c0.3,1.9-0.5,3.8-2.2,5.9c0.3-1.5-3.2,0.5-4.5,2.3c-0.7-0.4-2.2,1.5-3,1.9c-0.8,0.5-2.3-0.8-3.7-1.2c-1.5,0.8-4.3-1.4-6.2-2.6
		c-1.6,2.3-4.1-1.6-5.4-3.7c-1.7,1.5-3.9-2.4-5.8-4.3c-1.7,2.1-4.9,2.1-6.7,1.9c-1.7,2.1-5,2.1-7,1.7c-1.6,2-7,1.6-8.3,1.6
		c-1.4,1-4,0.5-4,0.5s-2.6,0.5-4-0.5c-1.3,0-6.7,0.4-8.3-1.6c-2.1,0.5-5.3,0.4-7-1.7c-1.8,0.2-5,0.2-6.7-1.9
		c-1.9,1.9-4.1,5.7-5.8,4.3c-1.3,2.1-3.7,6.1-5.4,3.7c-1.9,1.2-4.7,3.4-6.2,2.6c-1.4,0.3-2.9,1.6-3.7,1.2c-0.8-0.5-2.3-2.3-3-1.9
		c-1.3-1.8-4.8-3.9-4.5-2.3c-1.7-2.1-2.5-4-2.2-5.9c0.3-1.9,0.2-2.8-0.7-1.6c-0.1-2.6-0.6-3.6,0-4s1.5-4.2-0.3-2.5
		c0-1.9,1.5-4.4,4-6.2s4.8-3,4.1-7c-1.7,0.5-5.7,1.7-5.7,1.7s-1.2-4.1,5.5-10c-1.9-0.1-4.8-0.4-8.6,4.5c0.8-3,2.3-4.8,3.7-6.6
		c-3-0.1-5.4,0.3-6.5,2c0,0-15.6,21.9,1.5,56.5c1.7,0.6,4.7,0.7,5.8,0.4c-0.2,1-0.8,2.4,6.3,2.5c-0.1,1,0.5,1.9,3.7,1.8
		c0.1,1.9,0.9,4.9,2.1,4.8c0,1.5,0.3,2.4,0.7,3.2c0,0.9-0.8,6.5,2,4.5c0.1,1.8,0.2,6.9,0.2,6.9s4.1,11.5,39.1,13.8
		c35-2.3,39.1-13.8,39.1-13.8s0.1-5.1,0.2-6.9c2.8,1.9,2-3.6,2-4.5c0.4-0.8,0.7-1.7,0.7-3.2c1.2,0.1,2-2.9,2.1-4.8
		c3.3,0.2,3.8-0.7,3.7-1.8c7.1-0.1,6.5-1.5,6.3-2.5c1.1,0.3,4.1,0.2,5.8-0.4C226.2,145.4,210.6,123.5,210.6,123.5z"/>
</g>
<g id="Layer_4">
	<g>
		
			<ellipse transform="matrix(0.7071 -0.7071 0.7071 0.7071 -62.132 149.9999)" class="st1" cx="150" cy="150" rx="118.4" ry="118.4"/>
		<path class="st2" d="M150,34.1c31,0,60.1,12.1,82,34s34,51,34,82s-12.1,60.1-34,82s-51,34-82,34s-60.1-12.1-82-34s-34-51-34-82
			s12.1-60.1,34-82S119,34.1,150,34.1 M150,29.1C83.2,29.1,29.1,83.2,29.1,150S83.2,270.9,150,270.9S270.9,216.8,270.9,150
			S216.8,29.1,150,29.1L150,29.1z"/>
	</g>
	<path class="st2" d="M207.6,107.5c-3.1-3.2-3.4-2.7-0.5-3.9c2.9-1.2-7.4-13.2-7.4-13.2s1.4,0,5.2,0c-5.2-1.7-7.1-8.4-9.7-11.1
		c-2.6-2.7-10-2.3-10-2.3l0,0c2-3.5,3.2-7.5,3.2-11.9c0-13.1-10.6-23.7-23.7-23.7c-6.1,0-11.7,2.4-15.9,6.2
		c-4.2-3.8-9.8-6.2-15.9-6.2C119.7,41.3,109,52,109,65.1c0,4.3,1.2,8.4,3.2,11.9l0,0c0,0-7.4-0.4-10,2.3c-2.6,2.7-4.5,9.4-9.7,11.1
		c3.8,0,5.2,0,5.2,0s-10.3,12-7.4,13.2c2.9,1.2,2.5,0.7-0.5,3.9c-3.1,3.2,0,5.2,4.2,5c0.1,2.6,0.7,17.9,5.6,14.9
		c0.2,4.6,1.6,19.3,6.4,12.9c0.4,5,7.9,11.7,9.7,6.6c3.4,3.7,13.4,8.4,13,3.1c3.8,3.1,13.1,6.3,12.6,3.1c3.5,2.3,7.4,1.8,7.4,1.8
		s3.9,0.5,7.4-1.8c-0.5,3.2,8.8,0,12.6-3.1c-0.5,5.3,9.5,0.7,13-3.1c1.8,5.1,9.3-1.7,9.7-6.6c4.8,6.4,6.1-8.2,6.4-12.9
		c4.9,3.1,5.6-12.3,5.6-14.9C207.6,112.7,210.7,110.7,207.6,107.5z"/>
	<path class="st3" d="M164.4,45.8c-6.7,0-12.5,3.3-16.1,8.4c-3.5-5.1-9.4-8.4-16.1-8.4c-10.8,0-19.5,8.7-19.5,19.5
		c0,10.8,8.7,19.5,19.5,19.5c6.7,0,12.5-3.3,16.1-8.4c3.5,5.1,9.4,8.4,16.1,8.4c10.8,0,19.5-8.7,19.5-19.5
		C183.9,54.5,175.2,45.8,164.4,45.8z"/>
	<path class="st2" d="M208.3,248.9c3.8-4.5,9.8-20.3,11.7-38.8c1.9-18.5-6.7-18.7-16.8-23.6c-10.1-4.9-52.2-4.7-52.2-4.7
		s-42.1-0.2-52.2,4.7s-18.7,5.1-16.8,23.6c1.9,18.5,7.6,34.9,11.4,39.5c0,0,21.4,11.3,37.8,13.8
		C143.4,265.3,175.3,266.7,208.3,248.9z"/>
	<path class="st2" d="M89,246.8c0,0,0.6,1.2-4-9.9c-5.3-0.8-12.1-5.1-14.9-11c-2.8-5.9,4.4-6.1,11.6-4.5c-0.4-1.3-1.6-14.3-1.6-14.3
		s-15.6-5.1-22.6,10.7C57.5,217.8,73.7,240,89,246.8z"/>
	<path class="st1" d="M151,187.3c0,0-56.7-2.7-53.7,16.7c0,0,6-13.2,53.7-13.2s53.7,13.2,53.7,13.2C207.7,184.6,151,187.3,151,187.3
		z"/>
	<path class="st3" d="M147.7,189.4c-9.5-0.2-39.5,0.3-49.8,14.3c-0.1,0.1-0.1,0.2,0,0.3c0.9,1.5,9.8,13.6,53.1,13.6
		c41.8,0,51.6-11.5,53.2-13.6c0.1-0.2,0.1-0.5,0-0.6c-12.7-15.9-41.7-14.8-50.7-14.1C151.5,189.4,149.6,189.5,147.7,189.4z"/>
	<g>
		<text transform="matrix(1 0 0 1 41.4352 176.4943)" class="st4 st5 st6">COFFEE MONSTER</text>
	</g>
	<circle class="st1" cx="132.8" cy="68.1" r="9.9"/>
	<circle class="st1" cx="162.3" cy="62.9" r="9.9"/>
	<path class="st1" d="M189.8,98.8c0.1,2.2-4,5.8-10.3,5.8c-6.3,0-10.1-3.4-10.1-3.4s0.2,0.7,0.9,2.5c-8.9,0-10.7-2.2-11.5-3.1
		c-0.8,0.7-1,1.4-4.1,1.4c-3.1,0.1-6.4-2.1-6.4-2.1s-3.3,2.2-6.4,2.1c-3.1-0.1-3.3-0.7-4.1-1.4c-0.8,0.9-2.5,3.1-11.5,3.1
		c0.7-1.9,0.9-2.5,0.9-2.5s-3.8,3.4-10.1,3.4c-6.3,0-10.5-3.7-10.3-5.8c-1.2,2.2-0.4,4,2.8,8.1c3.2,4,8.1,18.4,8.9,20.8
		c0.8,2.4,6,10.5,29.7,10.5s28.9-8.1,29.7-10.5c0.8-2.4,5.8-16.8,8.9-20.8C190.2,102.9,190.9,101,189.8,98.8z"/>
</g>
</svg>
