<svg xmlns="http://www.w3.org/2000/svg" viewBox="0 0 584 584"><defs><style>.cls-1{fill:#fff;}</style></defs><g id="Laag_9" data-name="Laag 9"><path class="cls-1" d="M126.63,289.71a134.6,134.6,0,0,1,10.7-12.25,74.84,74.84,0,0,1,6.14-5.49,46.31,46.31,0,0,1,7-4.67,34.9,34.9,0,0,1,16.49-4.41,55,55,0,0,1,16.7,2.7A136.79,136.79,0,0,1,199,271.64a129,129,0,0,1,14.51,7.83c9.42,5.65,17.7,12.6,27.1,16.31a53.38,53.38,0,0,0,14.74,3.48,89.12,89.12,0,0,0,15.58-.05,45.9,45.9,0,0,0,14.81-3.39c4.65-2,8.71-5,12.91-8.41a61.89,61.89,0,0,1,6.76-4.89,31,31,0,0,1,3.85-2,27.18,27.18,0,0,1,4.12-1.35,32.43,32.43,0,0,1,8.46-.85,63.14,63.14,0,0,1,8.25.67,45.08,45.08,0,0,1,15.64,5.26,39.88,39.88,0,0,1,6.71,4.79c1,.9,2,1.84,3,2.79s1.89,1.92,2.88,2.75l-.6.8c-1.14-.83-2.12-1.74-3.14-2.62s-2-1.72-3.1-2.52a41.76,41.76,0,0,0-6.69-4.17,44,44,0,0,0-15-4.15,62.35,62.35,0,0,0-7.85-.27,29.6,29.6,0,0,0-7.5,1.19,25.21,25.21,0,0,0-3.48,1.33,26.91,26.91,0,0,0-3.24,1.87,59.5,59.5,0,0,0-6.08,4.85c-2,1.77-4.09,3.6-6.37,5.27a43.53,43.53,0,0,1-7.33,4.37,46.11,46.11,0,0,1-8.06,2.88,63.4,63.4,0,0,1-8.32,1.48,89.6,89.6,0,0,1-16.65.52,56.06,56.06,0,0,1-16.62-3.58,82.26,82.26,0,0,1-14.79-7.92c-4.6-3-8.95-6-13.41-8.85-2.24-1.41-4.5-2.75-6.78-4s-4.62-2.51-7-3.67a127.14,127.14,0,0,0-14.47-6.19A51.17,51.17,0,0,0,166.9,268a31.75,31.75,0,0,0-14.61,3,61.16,61.16,0,0,0-13.07,8.56c-2.05,1.68-4.06,3.44-6,5.27s-3.92,3.67-5.84,5.55Z"/></g><g id="Laag_6" data-name="Laag 6"><path class="cls-1" d="M111.05,83.8,112,92l.91,8.34L114.61,117l3.23,33.35,6.33,66.7q6.44,66.69,13.41,133.3c2.32,22.2,4.84,44.38,7.35,66.54s5.31,44.31,8.54,66.32l2.4,16.49c.85,5.47,1.72,10.95,2.92,16.28.3,1.32.63,2.63,1,3.91a21.17,21.17,0,0,0,1.31,3.5c.22.5.58.88.45.77l1.77.9a38.4,38.4,0,0,0,3.68,1.65,118.16,118.16,0,0,0,15.76,4.93,266.62,266.62,0,0,0,32.78,5.76,271.37,271.37,0,0,0,33.22,1.89,210.3,210.3,0,0,0,33.07-2.64c5.51-.89,11-1.78,16.48-2.78s10.92-2,16.25-3.37l2-.5,2-.57c1.32-.35,2.57-.8,3.83-1.25a21.77,21.77,0,0,0,6.58-3.5,9.9,9.9,0,0,0,3.07-5.89c.21-1.29.34-2.68.51-4s.34-2.67.48-4.08l3.51-33.29q6.74-66.66,14-133.27l3.68-33.29L358,277.53,365.73,211l7.85-66.55,7.63-66.57v-.07l0-.08a9.48,9.48,0,0,0,.18-2,7.67,7.67,0,0,0-.05-1.07,7.38,7.38,0,0,0-.15-1,9.59,9.59,0,0,0-1.59-3.86A12.7,12.7,0,0,0,372.54,65a26.94,26.94,0,0,0-4.43-.89l-4.65-.39c-3.15-.17-6.28-.35-9.43-.46-12.59-.54-25.2-.75-37.81-1-25.22-.47-50.45-.68-75.67-.83q-18.92-.1-37.83-.07-9.45,0-18.9.1c-6.29.07-12.59.17-18.83.39s-12.66.43-19,.61-12.56.37-18.68.95a66,66,0,0,0-8.89,1.36,25.27,25.27,0,0,0-3.94,1.26,7.85,7.85,0,0,0-2.76,1.8,3,3,0,0,0-.81,2.07.79.79,0,0,0,0,.17v2l0,2.34Zm-7.1.4.07-9.6,0-2.4V70.1l0-.41a9.63,9.63,0,0,1,.22-1.75,8,8,0,0,1,.55-1.74,9.74,9.74,0,0,1,2-3,14.33,14.33,0,0,1,5.1-3.34A32.3,32.3,0,0,1,117,58.33,72.53,72.53,0,0,1,126.8,57c6.45-.5,12.8-.57,19.12-.65s12.6-.09,18.89-.22c12.73-.16,25.32.08,37.95.29s25.24.51,37.86.83c25.23.63,50.45,1.43,75.67,2.27q18.93.64,37.84,1.46c3.15.13,6.31.35,9.47.48l4.78.37a30.1,30.1,0,0,1,4.83.95l1.2.35,1.17.49c.38.17.78.32,1.15.51l1.1.66a12.78,12.78,0,0,1,2.07,1.54,9.1,9.1,0,0,1,.91,1,6.78,6.78,0,0,1,.82,1,12.06,12.06,0,0,1,2.06,4.78,11,11,0,0,1,.2,1.28,11.2,11.2,0,0,1,.08,1.3,12.28,12.28,0,0,1-.21,2.65l0-.15-6.62,66.68-6.43,66.69-6.56,66.69-3.4,33.33-3.52,33.32c-4.77,44.41-9.71,88.81-15.1,133.16l-4.07,33.28c-.16,1.37-.38,2.81-.57,4.23s-.37,2.83-.64,4.28a20.49,20.49,0,0,1-.63,2.28l-.42,1.15a12,12,0,0,1-.56,1.14,13.45,13.45,0,0,1-3.18,4,26,26,0,0,1-8.15,4.26c-1.38.47-2.77.93-4.15,1.28l-2.08.57-2.07.48c-5.54,1.28-11.07,2.26-16.6,3.15s-11.07,1.72-16.61,2.51c-2.75.43-5.58.71-8.38,1-1.4.14-2.8.37-4.2.45l-4.22.29-4.22.29-4.22.12-4.21.12c-1.41,0-2.82,0-4.22,0a302.37,302.37,0,0,1-66.8-8c-1.36-.33-2.74-.63-4.1-1l-4.09-1.09c-1.37-.33-2.72-.78-4.08-1.17l-2-.62c-.68-.21-1.35-.47-2-.71a40.05,40.05,0,0,1-4.06-1.53l-2-.88a5.82,5.82,0,0,1-.87-.59c-.2-.2-.42-.41-.6-.62a10.17,10.17,0,0,1-.79-1.13,26,26,0,0,1-1.95-4.2c-.52-1.37-1-2.74-1.4-4.11-1.68-5.47-3-10.95-4.22-16.45-.62-2.74-1.16-5.5-1.69-8.26s-1.05-5.51-1.51-8.28c-1.9-11-3.4-22.14-4.93-33.22s-2.91-22.18-4.28-33.28c-2.76-22.19-5.13-44.41-7.52-66.63-4.69-44.44-8.93-88.92-13.13-133.4L110.36,151l-3.16-33.34L105.63,101l-.81-8.32Z"/><path class="cls-1" d="M371,182a134.13,134.13,0,0,1,21.8,3.05,140.49,140.49,0,0,1,21.05,6.34c13.64,5.33,26.48,13.2,36.42,24.08a73.84,73.84,0,0,1,12.23,18.25,75.84,75.84,0,0,1,3.93,10.3,79.17,79.17,0,0,1,2.47,10.74c.33,1.81.51,3.64.73,5.47s.35,3.66.44,5.49c.27,3.67.25,7.36.17,11l-.15,5.51-.29,5.51c-.25,3.67-.43,7.35-.81,11a182,182,0,0,1-3.45,22,129.58,129.58,0,0,1-6.6,21.52c-.73,1.74-1.47,3.49-2.3,5.19s-1.66,3.42-2.55,5.1a107.58,107.58,0,0,1-6,9.74,85.75,85.75,0,0,1-7.12,9,81.25,81.25,0,0,1-8.27,8,95.86,95.86,0,0,1-9.25,6.83,94.9,94.9,0,0,1-10,5.58,112.16,112.16,0,0,1-21.27,7.71,121.56,121.56,0,0,1-22.1,3.4c-3.7.23-7.41.31-11.11.19a93.13,93.13,0,0,1-11-1.08l.12-1a173,173,0,0,0,41.68-9.61A110.62,110.62,0,0,0,425,370.66a98.37,98.37,0,0,0,23.79-33.05,128.43,128.43,0,0,0,7-19.58,181.47,181.47,0,0,0,4.36-20.57c1.05-7,1.76-14,2.12-21.13a100.66,100.66,0,0,0,.07-10.27c0-1.7-.21-3.39-.33-5.08s-.34-3.36-.64-5a72.13,72.13,0,0,0-5.64-19.09,66.6,66.6,0,0,0-10.89-16.48c-8.87-9.92-20.75-17.23-33.6-22.28a133.16,133.16,0,0,0-19.95-6c-3.42-.74-6.86-1.38-10.31-1.88-1.73-.27-3.46-.42-5.17-.78a18.81,18.81,0,0,1-2.53-.85,2.21,2.21,0,0,1-1.23-.82,7.06,7.06,0,0,1-.58-1.05,2,2,0,0,1-.14-.4c0-.07,0-.21-.06-.32a2.49,2.49,0,0,1-.06-.39l-.12-1L371,183Z"/><path class="cls-1" d="M366.55,223.5l.43-1.62.37-1a2.4,2.4,0,0,1,.63-1.06,7.14,7.14,0,0,1,1-.73,3.23,3.23,0,0,1,2-.47c1.22.09,2.42.22,3.63.37a55.63,55.63,0,0,1,7.2,1.35,39.59,39.59,0,0,1,13.42,6.15,58.73,58.73,0,0,1,11,10.19,54.61,54.61,0,0,1,7.82,12.69,70.9,70.9,0,0,1,5.68,27.9A126.72,126.72,0,0,1,419,291l-.41,3.36c-.17,1.12-.33,2.23-.47,3.34q-.5,3.27-1,6.52c-.77,4.33-1.44,8.69-2.37,13s-1.87,8.68-3,13a101.09,101.09,0,0,1-4.25,13,66.44,66.44,0,0,1-6.62,12.46,51.26,51.26,0,0,1-4.57,5.71,48.06,48.06,0,0,1-5.53,4.93,49.39,49.39,0,0,1-12.87,6.92,54.6,54.6,0,0,1-13.5,3.24,50.76,50.76,0,0,1-6.75.12,9.1,9.1,0,0,1-7.09-3.09l-.16-1c8.44-2,17-3.64,24.73-6.86a44,44,0,0,0,10.7-6.15,40,40,0,0,0,8.21-8.92,58.23,58.23,0,0,0,5.68-10.88,91.81,91.81,0,0,0,3.87-11.86c1-4.06,2-8.17,2.71-12.34s1.33-8.37,1.9-12.58c.28-2.11.53-4.23.77-6.34l.3-3.11.21-3.11a92.12,92.12,0,0,0-.15-12.33,73.09,73.09,0,0,0-2-11.95,52.88,52.88,0,0,0-4.1-11.16,50.47,50.47,0,0,0-6.46-9.88,48.89,48.89,0,0,0-8.73-8.07c-3.23-2.35-6.57-4.66-10.14-6.84a54.74,54.74,0,0,0-5.59-2.91c-1-.44-1.95-.82-2.93-1.26l-1.47-.71a11.31,11.31,0,0,1-1.47-.75Z"/></g></svg>