<svg xmlns="http://www.w3.org/2000/svg" viewBox="0 0 584 584"><defs><style>.cls-1{fill:#fff;}.cls-2{fill:none;stroke:#fff;stroke-miterlimit:10;stroke-width:5px;}</style></defs><g id="Laag_4" data-name="Laag 4"><path class="cls-1" d="M48,123.16l.19,1.14.15,1.25.31,2.58.62,5.14,1.21,10.29,2.49,20.55c1.69,13.69,3.31,27.36,5.2,41,.85,6.82,1.91,13.61,2.83,20.42s2,13.58,3.18,20.32L65.84,256l1.9,10c.57,3.37,1.33,6.67,2.05,10s1.36,6.66,2.25,9.89,1.62,6.54,2.51,9.75l3,9.45,6.76,19.63q6.6,19.68,12.91,39.41l6.26,19.75,6.13,19.78,12.15,39.55,3,9.84,1.55,4.84c.26.86.49,1.43.72,2.13l.18.51.26.64.5,1.26a26.77,26.77,0,0,0,3.82,7.52,17.76,17.76,0,0,0,6.07,4.69,40.41,40.41,0,0,0,8.52,2.91c1.62.37,3.23.75,4.89,1.08s3.3.67,5,1c6.66,1.23,13.4,2.28,20.16,3.16,13.53,1.82,27.17,3,40.84,3.73s27.37.88,41.07.53l10.27-.41,10.26-.66c6.83-.47,13.63-1.15,20.36-2.12a132.65,132.65,0,0,0,19.84-4.19c6.37-1.95,12.65-4.56,17.32-8.77a20.63,20.63,0,0,0,5.26-7.59c.61-1.47,1.09-3,1.61-4.7a47.18,47.18,0,0,1,1.84-5.05c2.64-6.37,5.21-12.77,7.78-19.17s5.12-12.81,7.63-19.23l3.78-9.64,3.7-9.66q14.82-38.62,28.79-77.54l3.41-9.73,1.6-4.87.79-2.44.68-2.41.69-2.4.51-2.4c.3-1.65.57-3.31.81-5,.5-3.37.91-6.78,1.3-10.18,1.54-13.65,2.74-27.39,3.9-41.12s2.09-27.49,2.87-41.26c.39-6.88.77-13.77,1-20.65s.48-13.78.57-20.67.08-13.77-.19-20.63a91.54,91.54,0,0,0-.89-10.16c-.07-.4-.13-.82-.21-1.21a10.51,10.51,0,0,0-.33-1.09,9.89,9.89,0,0,0-1-2,16.36,16.36,0,0,0-3.25-3.52,38.34,38.34,0,0,0-8.57-5.11,85.35,85.35,0,0,0-9.53-3.62A184.52,184.52,0,0,0,371,102.83c-6.74-1.33-13.52-2.42-20.33-3.39S337.05,97.71,330.2,97l-10.29-1.12-5.18-.6c-1.68-.22-3.34-.38-5.05-.52-6.82-.55-13.7-.89-20.57-1.2q-20.62-.87-41.28-1T206.56,93q-20.62.48-41.18,1.88c-13.7.91-27.36,2.22-40.91,4.09a353.69,353.69,0,0,0-40.18,7.48A134,134,0,0,0,65,112.72c-1.57.62-3.08,1.36-4.61,2.09s-3,1.54-4.43,2.43c-.72.43-1.46.85-2.14,1.35s-1.41.92-2.07,1.45-1.36,1-2,1.56S48.62,122.62,48,123.16Zm-.94-.32c.52-.73,1.08-1.49,1.68-2.25s1.19-1.31,1.79-2,1.28-1.22,1.92-1.84,1.33-1.17,2-1.73a59.71,59.71,0,0,1,8.81-5.91,113.51,113.51,0,0,1,19.36-8.39,236.37,236.37,0,0,1,40.83-9.19c13.78-2,27.62-3.2,41.46-4.1s27.69-1.27,41.53-1.45q41.55-.36,83,2.5c6.91.48,13.8,1,20.72,1.74,1.72.19,3.5.4,5.23.67l5.09.73L330.68,93c6.85.93,13.7,1.91,20.53,3s13.65,2.32,20.43,3.78a196.66,196.66,0,0,1,20.14,5.37,90.38,90.38,0,0,1,9.78,3.82,40.85,40.85,0,0,1,9.09,5.56,18.63,18.63,0,0,1,3.7,4.1,12.73,12.73,0,0,1,1.27,2.56,13.73,13.73,0,0,1,.4,1.39c.09.46.15.89.22,1.34a95.63,95.63,0,0,1,.83,10.46c.27,6.93.27,13.84.2,20.75q-.45,41.44-2.7,82.83c-.75,13.79-1.64,27.58-3,41.37-.35,3.45-.73,6.9-1.2,10.36q-.35,2.6-.8,5.22c-.16.89-.35,1.79-.53,2.67l-.73,2.58-.72,2.57-.81,2.48-1.62,5-3.43,9.8c-4.7,13-9.66,25.9-14.68,38.76l-15.18,38.53-7.61,19.26-7.54,19.28-7.5,19.3a42.78,42.78,0,0,0-1.61,4.7c-.47,1.64-1,3.38-1.63,5.12a25.47,25.47,0,0,1-6.24,9.41,38.37,38.37,0,0,1-9.1,6.24,70.68,70.68,0,0,1-9.94,4,152.44,152.44,0,0,1-20.5,4.94c-6.89,1.21-13.81,2.11-20.73,2.81l-10.37,1-10.4.77q-20.81,1.33-41.69,1.05c-13.91-.19-27.82-.88-41.71-2.21-6.95-.63-13.89-1.48-20.84-2.5q-2.59-.37-5.21-.83c-1.74-.28-3.5-.62-5.26-1a52.26,52.26,0,0,1-11.13-3.41,29.45,29.45,0,0,1-10.37-7.6,38.2,38.2,0,0,1-6-10.59L116,466l-.24-.56-.27-.7c-.36-.92-.77-2-1-2.74l-1.74-5-3.34-9.85c-4.43-13.1-8.63-26.24-12.91-39.35L83.67,368.49,70.85,329.21l-6.51-19.58-3-10.35c-.88-3.45-1.63-6.9-2.44-10.34q-4.34-20.7-6.64-41.42l-.63-5.18-.51-5.18-1-10.37-.81-10.37c-.28-3.46-.53-6.92-.73-10.37-.9-13.83-1.41-27.67-1.72-41.51l-.16-10.38V143.78c0-3.46,0-6.92.09-10.38l.11-5.19.07-2.59,0-1.33C47,123.79,47,123.31,47,122.84Z"/><path class="cls-1" d="M414.78,193.5a78.85,78.85,0,0,1,11.73-5.05A106.59,106.59,0,0,1,438.84,185a102.53,102.53,0,0,1,12.71-1.9,100.91,100.91,0,0,1,12.9-.22,82.33,82.33,0,0,1,12.88,1.54,71.51,71.51,0,0,1,12.53,3.64,65.56,65.56,0,0,1,11.65,6c.94.57,1.79,1.27,2.68,1.9a30,30,0,0,1,2.6,2l2.5,2.14,2.34,2.21C524,214.26,534,228.87,539.46,245.3A87.65,87.65,0,0,1,544,270.74a81.15,81.15,0,0,1-3.38,25.64,84.09,84.09,0,0,1-11.19,23.23A205.2,205.2,0,0,1,514.13,340a140.74,140.74,0,0,1-18.25,17.87,112.79,112.79,0,0,1-21.58,13.72A131.71,131.71,0,0,1,425.12,384a120.69,120.69,0,0,1-12.76,0,108.49,108.49,0,0,1-12.68-1.49c-2.1-.37-4.18-.84-6.26-1.4a29.68,29.68,0,0,1-3.15-1,28.45,28.45,0,0,0-2.81-1.08,14.17,14.17,0,0,0-5.74-.73,8.68,8.68,0,0,0-5.13,2.45l-.77-.64a9.3,9.3,0,0,1,2.42-2.34,10,10,0,0,1,1.51-.83,10.79,10.79,0,0,1,1.65-.5,14.37,14.37,0,0,1,6.72.32,22.73,22.73,0,0,1,3.11,1.05,24.63,24.63,0,0,0,2.86.86q3,.76,6.05,1.28a106.73,106.73,0,0,0,12.37,1.31,120.07,120.07,0,0,0,12.44-.14,128.6,128.6,0,0,0,47.79-12.75,108.77,108.77,0,0,0,20.71-13.52A135.2,135.2,0,0,0,511,337.27a199.6,199.6,0,0,0,14.75-20.11A82.11,82.11,0,0,0,536.12,295a79.48,79.48,0,0,0-1.43-48.14c-5.33-15.48-14.79-29.43-26.62-40.83L505.83,204l-2.3-2a28.56,28.56,0,0,0-2.38-1.85c-.82-.57-1.59-1.22-2.46-1.73A59.07,59.07,0,0,0,488,192.86a66.42,66.42,0,0,0-11.64-3.39A78,78,0,0,0,464.21,188a132.65,132.65,0,0,0-24.58,1.45,227.57,227.57,0,0,0-24.47,4.95Z"/><path class="cls-1" d="M413.58,222.72c1.57.12,3,.38,4.48.41a17.46,17.46,0,0,0,4.13-.29,14.38,14.38,0,0,0,3.69-1.27c.58-.27,1.1-.62,1.69-1,.74-.43,1.45-.82,2.17-1.18a72.12,72.12,0,0,1,17.93-6.07,62.38,62.38,0,0,1,19.39-.9,47.8,47.8,0,0,1,9.87,2.22,40,40,0,0,1,9.32,4.53,41.59,41.59,0,0,1,8,6.78l1.69,2c.55.67,1,1.27,1.48,1.9,1,1.25,1.89,2.55,2.8,3.85a77.42,77.42,0,0,1,9.14,17.1,58.19,58.19,0,0,1,3.8,19.52,60.52,60.52,0,0,1-.8,10,63.11,63.11,0,0,1-2.48,9.57,76.68,76.68,0,0,1-8.72,17.21,110.63,110.63,0,0,1-11.77,14.66,142.58,142.58,0,0,1-13.61,12.7,93.15,93.15,0,0,1-15.68,10.29,88.9,88.9,0,0,1-17.39,6.91,90.29,90.29,0,0,1-18.35,2.91A87.33,87.33,0,0,1,406,353.51a79.46,79.46,0,0,1-8.93-2,59.12,59.12,0,0,1-8.6-3.07l.38-.92a81.85,81.85,0,0,0,17.5,2.85,92.73,92.73,0,0,0,17.57-.7,84.25,84.25,0,0,0,16.87-4.17,82,82,0,0,0,15.56-7.43,93,93,0,0,0,13.77-10.32,150.19,150.19,0,0,0,12.09-12.48c7.51-8.76,13.94-18.43,17.24-28.85a54.83,54.83,0,0,0,1.84-7.88,49.42,49.42,0,0,0,.44-8A47.06,47.06,0,0,0,498.36,255a57.26,57.26,0,0,0-3.5-7.4,75.18,75.18,0,0,0-4.43-7.08c-.81-1.15-1.64-2.3-2.51-3.42-.43-.54-.88-1.16-1.3-1.64L485.39,234a34,34,0,0,0-5.7-4.88c-8.32-5.63-19.55-7.17-30.79-6.49A93.89,93.89,0,0,0,432,225.19c-.69.17-1.36.36-2,.55a21.67,21.67,0,0,1-2.49.69,17.07,17.07,0,0,1-5.13.33,18.05,18.05,0,0,1-4.81-1.11,43,43,0,0,1-4.2-2Z"/><path class="cls-1" d="M48,122.79a18,18,0,0,0,4,4,33.92,33.92,0,0,0,4.87,3,78.07,78.07,0,0,0,10.7,4.35A205.07,205.07,0,0,0,90.19,140c7.66,1.6,15.4,2.92,23.18,4.07S129,146,136.83,146.47c15.79.87,31.79,1.31,47.7,1.82s31.88.93,47.82,1.26c31.86.62,63.79,1.28,95.56.4l3-.08,3-.17,5.92-.33c3.9-.37,7.76-.7,11.76-1.28,7.94-1,15.86-1.91,23.67-3.19s15.56-2.91,22.59-6.28a38.81,38.81,0,0,0,5.07-2.86,33.1,33.1,0,0,0,4.56-3.62,35.36,35.36,0,0,0,7-9.36l.9.44a36.62,36.62,0,0,1-6.69,10.13,33.63,33.63,0,0,1-4.58,4.1,36.87,36.87,0,0,1-5.17,3.31c-7.23,3.91-15.18,6-23,7.66s-15.8,2.83-23.64,4.18c-3.87.72-7.95,1.29-12,1.78l-6,.54-3,.26-3,.19c-16,1-32,1.52-48,1.75s-32,.37-47.95.25-32-.3-47.93-.59c-8-.15-16-.39-24-.63s-16-.52-24-.94-16.15-1.25-24.18-2.35a193.29,193.29,0,0,1-23.87-4.71,121.42,121.42,0,0,1-23-8.44,58.38,58.38,0,0,1-10.54-6.62c-.83-.63-1.61-1.35-2.39-2.05s-1.48-1.5-2.14-2.34a16,16,0,0,1-3.12-5.49Z"/></g><g id="Layer_10" data-name="Layer 10"><path class="cls-2" d="M55.27,130s-3.49,20.71,0,22.85,5.24.15,5.24,12.15,4.36,13,11.34,5,12.22-4,14.84,13,10.47,30,14,19,13.09-22,14.84-6,5.23,51,12.21,52,7.86-62,14-65,5.57,7,11.07,6,10.32-10,15.77,0,4.57,15,9.81,17-1.75,33,9.6,32,14.83-24,15.71-34,6.41-16,11.49-15,4.21,10,10.32,10,10.47-7,14.84-7,7,1,10.47-1,14.83-5,19.2-5,30.54-5,34-7"/><path class="cls-2" d="M311.83,176c5.24,1,20.08-1,25.31-4s16.81,1,23.24,0,16.9-10,22.14-9,.87,18,7,18,7-27,9.6-28,14.4-8,17.4-8"/><path class="cls-2" d="M126.83,261s0,15,6.11,16,0-19.37,0-19.37"/><path class="cls-2" d="M184.43,255s0,14,5.23,15,3.49-21,0-22"/></g></svg>