<svg xmlns="http://www.w3.org/2000/svg" viewBox="0 0 584 584"><defs><style>.cls-1{fill:#fff;}</style></defs><g id="Laag_9" data-name="Laag 9"><path class="cls-1" d="M60.8,144.58c15.79-7.64,32-14.48,49.05-19.41l6.42-1.68c1.07-.3,2.16-.51,3.25-.74l3.26-.68c1.09-.22,2.17-.49,3.27-.65l3.31-.51,3.31-.49c1.1-.16,2.22-.21,3.33-.32a109.41,109.41,0,0,1,26.87.63,123,123,0,0,1,25.9,7.13c2.12.76,4,1.56,6.11,2.28l6.11,2.17c4.1,1.38,8.23,2.71,12.39,3.95,8.32,2.49,16.74,4.66,25.2,6.63s17,3.71,25.55,5.16,17.16,2.6,25.79,3.33a219.28,219.28,0,0,0,25.86.9A110.18,110.18,0,0,0,341,148.82c1-.23,2-.6,3-.91l1.49-.48c.5-.17,1-.38,1.51-.57l6.06-2.33,6-2.51,5.9-2.71c7.82-3.72,15.35-8,23.24-12.09a73.69,73.69,0,0,1,12.47-5.17,47.41,47.41,0,0,1,6.68-1.49l3.41-.33a14,14,0,0,1,1.71-.06h3.4c.56,0,1.12.09,1.69.13l3.36.29,3.3.49,1.65.24,1.63.32a82.1,82.1,0,0,1,12.89,3.4,69.05,69.05,0,0,1,12.1,5.58c1.89,1.15,3.76,2.35,5.53,3.68s3.49,2.71,5.22,4l-.54.84c-1.89-1.21-3.63-2.5-5.46-3.68s-3.7-2.26-5.61-3.27a69.38,69.38,0,0,0-12-4.82A86.39,86.39,0,0,0,427,124.59l-1.6-.24-1.61-.18-3.22-.34-3.19-.14c-.53,0-1.06-.06-1.59-.06l-1.59.06c-8.51.08-16.41,3.27-23.95,7.44-3.79,2.09-7.54,4.31-11.37,6.5-1.9,1.11-3.85,2.15-5.78,3.22l-5.88,3.08-6,2.91-6.07,2.72-6.16,2.52c-.51.21-1,.43-1.55.62l-1.61.57c-1.09.37-2.16.79-3.26,1.07A113.28,113.28,0,0,1,316,158.4a221,221,0,0,1-26.64-.56c-8.84-.71-17.61-1.87-26.33-3.29s-17.39-3.13-26-5.12-17.12-4.3-25.57-6.88c-4.23-1.28-8.43-2.66-12.62-4.1s-8.36-3.12-12.41-4.72a116.06,116.06,0,0,0-24.54-7.23,104.66,104.66,0,0,0-25.51-1.33,158.15,158.15,0,0,0-25.54,4c-2.11.49-4.19,1.1-6.3,1.63l-3.15.82-3.13.94L92,134.4l-6.21,2.09c-8.28,2.75-16.45,5.88-24.63,9Z"/></g><g id="Laag_2" data-name="Laag 2"><path class="cls-1" d="M55.21,91a5.1,5.1,0,0,0-2,2.74,6.61,6.61,0,0,0-.13,3l1.29,6.3L57,115.71c1.69,8.4,3.56,16.82,5.38,25.23s3.75,16.82,5.66,25.22l5.74,25.2,11.43,50.3c1.8,8.37,3.67,16.74,5.41,25.1l5.15,25.08,19.74,100.32c3.33,16.72,6.43,33.46,9.64,50.2l9.54,50.24.13,1.06,0-.26s0,0,0,.05a1.25,1.25,0,0,0,.05.26,7.38,7.38,0,0,0,.2.72l.3.81.38.87a23.8,23.8,0,0,0,2.19,3.52,38,38,0,0,0,6.63,6.53A75.18,75.18,0,0,0,162.4,516c13.07,5.25,27.37,8.38,41.79,10.57a408,408,0,0,0,43.92,3.83c14.75.53,29.6.56,44.35,0a337.27,337.27,0,0,0,43.81-4.27,161.47,161.47,0,0,0,21.06-5c1.73-.5,3.39-1.12,5.05-1.73s3.29-1.29,4.92-2c.82-.33,1.61-.7,2.38-1.09l2.35-1.15c.76-.4,1.5-.84,2.25-1.26l1.13-.63c.37-.22.71-.46,1.07-.69a39.23,39.23,0,0,0,13.76-14c.42-.7.77-1.47,1.16-2.2s.73-1.51,1.05-2.33c.69-1.57,1.3-3.27,2-5.1.36-.91.77-1.89,1.26-2.91.28-.54.51-1.05.85-1.61l.55-.85.28-.42c.07-.09.08-.12,0-.09l0,0a.24.24,0,0,0-.06.08v0s0,0,0,0l.17-.47.19-.48.19-.59c.25-.78.5-1.63.74-2.49,1.89-6.94,3.48-14.28,5.05-21.53s3-14.58,4.52-21.89c5.86-29.26,11.35-58.64,16.78-88s10.73-58.79,16-88.21q15.76-88.26,31-176.62l.15.45h0l-1,.84c-.26.19-.49.35-.66.45-.37.24-.56.28-.66.2l-.66-.49-1.32-1-2.77-1.91c-1.91-1.22-3.83-2.42-5.78-3.57l-6-3.31-6.15-3-1.53-.76-1.58-.68-3.15-1.38-3.14-1.37-1.58-.69-1.61-.61-6.43-2.44-3.21-1.22-3.28-1.07a341.49,341.49,0,0,0-53.43-13.58l-6.79-1.28-6.85-1-13.69-2-13.78-1.35c-4.59-.43-9.17-1-13.79-1.16l-13.84-.75-6.92-.37-6.93-.1-13.87-.18c-2.31,0-4.61-.08-6.93-.08l-6.95.07c-18.54.2-37,.9-55.49,2.25-9.21.72-18.42,1.53-27.57,2.65s-18.27,2.39-27.31,4.06-18,3.61-26.79,6a226.5,226.5,0,0,0-25.79,8.56c-4.13,1.75-8.25,3.54-12.16,5.62-2,1-3.88,2.12-5.8,3.2s-3.74,2.28-5.5,3.55a69,69,0,0,0-9.79,8.15c-.71.75-1.47,1.47-2.1,2.27s-1.34,1.54-1.92,2.35c-.3.41-.61.8-.9,1.21L56,90.73l-.4.61s0,0,0,0A.73.73,0,0,0,55.21,91ZM48,89.92l.89-1.65.46-.82.49-.74,1-1.49c.34-.48.7-1,1-1.42.69-1,1.45-1.86,2.22-2.76s1.58-1.75,2.38-2.61a76.3,76.3,0,0,1,10.8-9.1c1.9-1.39,3.91-2.61,5.9-3.87s4.06-2.4,6.16-3.45c4.14-2.24,8.44-4.14,12.75-6a232.76,232.76,0,0,1,26.64-9.07c9-2.53,18.18-4.6,27.38-6.35s18.46-3.25,27.75-4.43,18.6-2.19,27.92-3c18.65-1.54,37.36-2.25,56.05-2.54s37.47.27,56.17,1.59c4.69.18,9.35.77,14,1.22l14,1.43,13.94,2,7,1,6.93,1.34,6.92,1.35,3.45.69c1.16.22,2.31.46,3.45.76l13.7,3.39c9.08,2.53,18.12,5.19,27,8.49l3.33,1.2,3.28,1.36,6.54,2.71,1.64.68,1.6.76,3.21,1.52,3.21,1.51,1.61.76,1.57.83,6.28,3.35c2.06,1.19,4.09,2.43,6.13,3.64s4,2.6,6,4l2.92,2.13,1.44,1.15.72.58c.12.1.16.34,0,.75a3.6,3.6,0,0,1-.31.72l-.67,1.1h0l.19.16,0,.29c-4.23,29.59-8.79,59.13-13.26,88.68-2.21,14.78-4.58,29.54-6.91,44.3l-7.05,44.28-7.14,44.26c-2.38,14.76-4.93,29.49-7.42,44.22-5,29.47-10.15,58.93-15.62,88.34-1.38,7.35-2.78,14.7-4.26,22s-3,14.67-4.87,22.07c-.25.93-.5,1.86-.8,2.83l-.22.71-.28.78-.29.78c-.12.3-.36.73-.55,1.08l-.16.27-.12.19-.14.21-.29.42c-.21.27-.4.64-.63.95-.44.69-.93,1.42-1.48,2.19-1.05,1.54-2.26,3.13-3.39,4.72-.53.81-1.11,1.59-1.55,2.42s-.92,1.66-1.37,2.49A51.81,51.81,0,0,1,389,511a59.37,59.37,0,0,1-8.14,8.42,71.74,71.74,0,0,1-20.09,12.3,82.55,82.55,0,0,1-11.09,3.63l-5.63,1.37-5.65,1.16c-7.53,1.45-15.1,2.62-22.66,3.44-1.89.2-3.78.44-5.67.62l-5.68.5c-3.78.36-7.56.56-11.34.81-15.13.88-30.21,1.15-45.36.92a394.74,394.74,0,0,1-45.55-3.2c-15.18-2.09-30.43-5.1-45.35-10.82a90.12,90.12,0,0,1-21.7-11.63,51.24,51.24,0,0,1-9.59-9.3,38.46,38.46,0,0,1-3.87-6.15l-.79-1.76c-.25-.61-.49-1.23-.71-1.88s-.42-1.32-.59-2.08c-.09-.35-.17-.75-.24-1.17,0-.21-.08-.4-.11-.69a10.17,10.17,0,0,1-.1-1.05l.14,1.22-9.95-50.85c-3.29-16.95-6.69-33.89-9.84-50.86L80.24,292.16q-9.49-50.85-17.1-101.5L55.5,140.19,51.6,115l-2-12.57C49.05,98.26,48.19,94,48,89.92Z"/><path class="cls-1" d="M61.5,75.5a7.93,7.93,0,0,0-1.72,5.92,10.49,10.49,0,0,0,3,5.61,23.48,23.48,0,0,0,5.22,4l1.44.85,1.5.76c1,.53,2,1,3,1.41a95.87,95.87,0,0,0,12.76,4.35c2.15.64,4.36,1.1,6.54,1.65s4.41.94,6.61,1.42c8.85,1.74,17.8,3,26.76,4s18,1.78,27,2.42,18,1,27.06,1.51,18,.82,27.07,1.23c18.05.68,36.11,1.42,54.17,1.67s36.13.43,54.19.22,36.11-.66,54.11-1.68c9-.58,18-1.22,26.89-2.42,2.22-.35,4.42-.65,6.64-1l6.66-1.2q6.66-1.2,13.27-2.56a149.77,149.77,0,0,0,25.73-7.42,93.48,93.48,0,0,0,11.86-5.89c1-.52,1.88-1.16,2.82-1.74.47-.3,1-.58,1.4-.89l1.33-1c.86-.69,1.86-1.24,2.68-2s1.73-1.41,2.64-2.09l.72.68c-.53,1.07-1.15,2.08-1.77,3.11a15.22,15.22,0,0,1-1,1.45c-.36.48-.73.94-1.12,1.39a22.52,22.52,0,0,1-2.44,2.62c-.89.8-1.73,1.68-2.67,2.4a51.05,51.05,0,0,1-12.31,7.12,154.89,154.89,0,0,1-26.64,8.07q-6.71,1.47-13.39,2.76l-6.66,1.3c-2.22.43-4.59.79-6.88,1.15-9.18,1.26-18.27,1.93-27.37,2.54-18.17,1.13-36.31,1.49-54.44,1.66l-13.59.07-13.6,0c-9.05-.06-18.11-.08-27.17-.25l-54.33-.7c-9.05-.16-18.12-.19-27.17-.39l-13.59-.26c-4.51-.07-9.11-.29-13.67-.44-9.13-.35-18.27-1.06-27.43-2-2.29-.25-4.58-.51-6.87-.83s-4.58-.58-6.87-1L105,112.12c-2.3-.4-4.59-.88-6.88-1.34s-4.59-1-6.88-1.59-4.59-1.14-6.9-1.87A65.86,65.86,0,0,1,70.58,102c-1.11-.62-2.21-1.25-3.32-2-.55-.36-1.08-.75-1.61-1.12l-1.6-1.26a36.67,36.67,0,0,1-3-2.84c-.48-.51-1-1.13-1.4-1.69-.23-.29-.46-.56-.68-.86s-.43-.65-.63-1l-.59-1c-.19-.33-.36-.71-.54-1.07s-.34-.72-.48-1.08-.27-.8-.39-1.19a12.54,12.54,0,0,1-.52-5,11.7,11.7,0,0,1,.59-2.4,8.13,8.13,0,0,1,.52-1.07,6.89,6.89,0,0,1,.61-1A7,7,0,0,1,59,75.93a7.18,7.18,0,0,1,1.8-1.1Z"/><path class="cls-1" d="M457.14,176.7a58.08,58.08,0,0,1,11.57,1.08,72.56,72.56,0,0,1,21.73,7.84,73.14,73.14,0,0,1,9.64,6.43,74.41,74.41,0,0,1,15.48,17.12l1.55,2.44c.5.82,1,1.62,1.48,2.49.9,1.7,1.83,3.39,2.7,5.11l2.35,5.29c.42.86.71,1.79,1.05,2.69l1,2.71a124.17,124.17,0,0,1,5.61,22.39,180.71,180.71,0,0,1,2.21,23c.07,1,.08,1.93.07,2.89v2.89l0,5.77c-.09,3.85-.32,7.7-.44,11.55s-.51,7.68-.76,11.52-.69,7.68-1,11.53l-.27,2.88c-.1,1-.25,1.92-.36,2.88l-.73,5.76c-.39,3.87-1.2,7.67-1.87,11.5l-.52,2.88c-.16,1-.44,1.9-.65,2.85l-1.35,5.71c-.24.94-.43,1.91-.71,2.85l-.84,2.81-1.7,5.65a121.51,121.51,0,0,1-9.56,21.73l-1.48,2.59-.74,1.3-.83,1.26-3.32,5c-1.15,1.64-2.47,3.16-3.69,4.75-.63.78-1.24,1.57-1.89,2.34l-2.07,2.2-2.07,2.19-1,1.09c-.37.35-.75.67-1.13,1-1.51,1.33-3,2.68-4.54,4l-4.78,3.68c-.78.63-1.65,1.13-2.49,1.69l-2.53,1.63a106.69,106.69,0,0,1-21.6,10.12,105.34,105.34,0,0,1-23,5,101.61,101.61,0,0,1-11.69.61,79.57,79.57,0,0,1-11.63-1l.12-1a150.49,150.49,0,0,0,22.31-4.35,130.76,130.76,0,0,0,20.71-7.49c1.64-.77,3.31-1.48,4.89-2.38s3.21-1.66,4.72-2.64c3.1-1.82,6.14-3.74,9.05-5.84l4.28-3.25,4.13-3.43a103.09,103.09,0,0,0,7.61-7.61l1.83-2c.57-.69,1.12-1.41,1.68-2.11,1.1-1.43,2.29-2.78,3.33-4.27l3.07-4.46.77-1.12.69-1.18,1.39-2.34c1.94-3.06,3.48-6.38,5.15-9.62.2-.4.42-.8.61-1.22l.54-1.26,1.08-2.52c.7-1.7,1.49-3.34,2.12-5.07a204.19,204.19,0,0,0,10.8-43l.74-5.55c.25-1.86.51-3.7.64-5.58.31-3.74.71-7.48,1-11.22s.39-7.47.5-11.2l0-5.59V278.3c0-.93,0-1.86,0-2.79a175.4,175.4,0,0,0-2-22,117.05,117.05,0,0,0-5.16-21.15l-.91-2.53c-.32-.84-.57-1.71-1-2.51l-2.16-4.9-2.48-4.7c-.39-.8-.9-1.52-1.36-2.27l-1.4-2.24a67.76,67.76,0,0,0-14-15.47,66.63,66.63,0,0,0-8.64-5.77,60.38,60.38,0,0,0-9.47-4.32,62.94,62.94,0,0,0-10.08-2.77c-1.7-.35-3.43-.49-5.11-1-.84-.19-1.69-.54-2.52-.79a2.27,2.27,0,0,1-1.25-.85,9.51,9.51,0,0,1-.62-1,2.88,2.88,0,0,1-.16-.44c-.05-.22-.11-.37-.17-.73s-.12-.59-.17-1-.14-1-.22-1.44Z"/><path class="cls-1" d="M448.45,229.76c.14-.55.33-1.14.48-1.66l.41-1a1.88,1.88,0,0,1,.19-.38c.06-.1.12-.24.17-.3a1.35,1.35,0,0,1,.3-.32l.56-.39a5,5,0,0,1,.54-.31,3.22,3.22,0,0,1,2-.33c1.21.19,2.43.37,3.62.63a42,42,0,0,1,7.06,2.08A32.91,32.91,0,0,1,476,236,51.92,51.92,0,0,1,484.39,248l.81,1.61.72,1.64c.47,1.1.95,2.19,1.32,3.31a63,63,0,0,1,2,6.73,86.6,86.6,0,0,1,1.88,13.5,104,104,0,0,1-.16,13.23l-.25,3.26c-.13,1.08-.25,2.15-.35,3.23s-.2,2.15-.35,3.21l-.46,3.19-.45,3.18-.49,3.12c-.3,2.08-.69,4.16-1,6.24-1.34,8.34-3,16.65-5.19,25a94.09,94.09,0,0,1-4.18,12.43,63.22,63.22,0,0,1-6.47,12A43.37,43.37,0,0,1,461.85,373a49.49,49.49,0,0,1-12.44,6.55,51.64,51.64,0,0,1-13,3,50.06,50.06,0,0,1-6.48.09,8.93,8.93,0,0,1-6.82-3.09l-.15-1c8.08-1.9,16.26-3.52,23.72-6.57A42.79,42.79,0,0,0,457,366.12a36.94,36.94,0,0,0,7.93-8.48,54.17,54.17,0,0,0,5.52-10.37,86.84,86.84,0,0,0,3.79-11.35c1-3.87,1.88-7.84,2.68-11.81s1.38-8,1.9-12.05c.27-2,.56-4,.78-6.08s.49-4.07.64-6.06l.26-3c.08-1,.1-2,.15-3l.13-3v-3a96.39,96.39,0,0,0-.78-11.81,78.49,78.49,0,0,0-2.27-11.4,60.65,60.65,0,0,0-4.27-10.58,42.4,42.4,0,0,0-6.52-9.17c-1.27-1.38-2.61-2.7-4-4s-2.83-2.58-4.33-3.85a38.92,38.92,0,0,0-4.9-3.36c-.86-.51-1.76-.94-2.66-1.42l-1.34-.78a11.43,11.43,0,0,1-1.37-.81Z"/></g></svg>