<svg xmlns="http://www.w3.org/2000/svg" viewBox="0 0 584 584"><defs><style>.cls-1{fill:#fff;}</style></defs><g id="Laag_9" data-name="Laag 9"><path class="cls-1" d="M72,424.61c11.12-7.49,22.73-14.41,35.42-19.43A82,82,0,0,1,127.39,400a58.67,58.67,0,0,1,20.9,1.23A80,80,0,0,1,167.51,409a191,191,0,0,0,17.92,8.19c6.12,2.46,12.37,4.61,18.67,6.57s12.67,3.67,19.11,5.05a164.9,164.9,0,0,0,19.42,3,96.86,96.86,0,0,0,19.41,0,57.23,57.23,0,0,0,9.35-1.81c1.51-.43,3-1,4.42-1.53.72-.3,1.43-.61,2.12-1s1.46-.74,2.18-1.1A141.1,141.1,0,0,0,296.9,416.2c2.69-1.92,5.36-3.89,8.06-5.89s5.46-4,8.47-5.78a31,31,0,0,1,9.9-4,28.8,28.8,0,0,1,10.64.11,56,56,0,0,1,19.15,7.23,75.77,75.77,0,0,1,15.72,12.74l-.68.74A79.07,79.07,0,0,0,352,409.87a55.88,55.88,0,0,0-18.55-5.95,25.07,25.07,0,0,0-9.32.37,27.5,27.5,0,0,0-8.47,3.85c-5.36,3.52-10.35,8.09-15.8,12.12a146.45,146.45,0,0,1-17.09,11.19c-.76.41-1.48.82-2.27,1.23s-1.6.81-2.42,1.17a46,46,0,0,1-5,1.87,62.55,62.55,0,0,1-10.3,2.18c-13.87,1.72-27.62.09-40.92-2.64A222.17,222.17,0,0,1,183,423.31a168.09,168.09,0,0,1-18.48-8.73l-2.18-1.21c-.71-.4-1.41-.79-2.13-1.15-1.43-.76-2.89-1.45-4.35-2.11a62.55,62.55,0,0,0-9-3.25,54,54,0,0,0-18.92-1.81,83.29,83.29,0,0,0-19,4,164.9,164.9,0,0,0-18.4,7.42c-6,2.8-12,5.85-17.9,9Z"/></g><g id="Laag_8" data-name="Laag 8"><path class="cls-1" d="M35.79,94.28s0,.33,0,.76,0,.88.06,1.36l.26,3.07a51.36,51.36,0,0,1,.29,6.85c0,.63-.09,1.28-.2,2a17,17,0,0,1-.46,2l-.92,3.06c-.59,2-1.12,3.9-1.49,5.76a23.11,23.11,0,0,0-.39,2.66,8,8,0,0,0,.06,2,1.65,1.65,0,0,0,.09.28s0,0,0,0h0l.08.12.33.52c.18.33.36.65.5,1a27.17,27.17,0,0,1,1.39,3.46,49.28,49.28,0,0,1,1.71,6.71,42.87,42.87,0,0,1,.73,7,28.06,28.06,0,0,1-.17,3.73,16.89,16.89,0,0,1-1,4.11l-.23.55a.69.69,0,0,0,0,.15l0,.07a3.2,3.2,0,0,0-.12.39,4.18,4.18,0,0,0-.13.51c0,.18-.08.39-.12.6a26.11,26.11,0,0,0-.33,2.71,92.88,92.88,0,0,0,0,12,115,115,0,0,0,1.28,12.06c.16,1,.35,1.9.56,2.75a24.61,24.61,0,0,0,.92,2.7l.31,1.1c.08.42.17.82.23,1.25a10.81,10.81,0,0,1,0,2.84,13.65,13.65,0,0,1-.59,2.38,7.55,7.55,0,0,0-.27.86,1.15,1.15,0,0,0,0,.25,2,2,0,0,0,0,.27v.08l.06.25.1.5a32.75,32.75,0,0,1,.5,3.69c.19,2.34.21,4.54.23,6.67l0,3.11,0,1.43c0,.27.07.78.12,1.23.24,1.94.58,4,.89,6.12.63,4.2,1.3,8.39,1.66,12.87.09,1.14.16,2.28.16,3.56a19.89,19.89,0,0,1-.12,2.17l-.11.7c0,.26-.15.61-.23.91l0,.08,0-.09,0-.07s0,0,0,.07a21.54,21.54,0,0,0-.12,2.54c0,1,0,2,0,3,.09,4.11.27,8.32.43,12.55l.22,6.38c.05,2.15.1,4.29,0,6.59,0,.58,0,1.17-.11,1.84,0,.34-.06.68-.13,1.11,0,.2-.08.46-.15.75a6.13,6.13,0,0,1-.48,1.33l-.49.83-.33.59c-.22.41-.44.84-.65,1.28-.87,1.75-1.66,3.59-2.4,5.46a93.53,93.53,0,0,0-3.67,11.52,88.56,88.56,0,0,0-2.63,24,78.94,78.94,0,0,0,1.3,12A86.66,86.66,0,0,0,35.49,341c2.62,7.83,5.71,15.38,10.34,21.94,1.15,1.67,2.41,3.3,3.69,5.08a39.31,39.31,0,0,1,3.58,5.83,45,45,0,0,1,3.7,13,76.69,76.69,0,0,0,7.66,23.16,95,95,0,0,0,6.29,10.64c1.16,1.7,2.38,3.39,3.65,4.95l.45.52.32.37c.13.15.2.25.3.38.37.48.67.93,1,1.38l1.75,2.66a48,48,0,0,0,3.56,4.93,31.37,31.37,0,0,0,4.64,3.74c1.71,1.22,3.45,2.41,5.18,3.67.87.63,1.73,1.28,2.59,2a12.93,12.93,0,0,1,1.25,1.21c.39.42.72.84,1.06,1.24a42.05,42.05,0,0,0,9.19,8.23,112.23,112.23,0,0,0,10.77,6.49h0l.29.14v.36a76.9,76.9,0,0,0,.69,13.41,53.73,53.73,0,0,0,3.3,12.81,25.93,25.93,0,0,0,7.21,10.42,18.35,18.35,0,0,0,5.38,3.08c2,.77,3.93,1.36,6.1,2.39h0l.44.08,0,.39A145.07,145.07,0,0,0,142,523.22a62.33,62.33,0,0,0,5.39,16.88,27,27,0,0,0,5.08,7.08,17.34,17.34,0,0,0,7.35,4.32,18.3,18.3,0,0,0,4.24.67,43.08,43.08,0,0,0,4.39-.13,28.8,28.8,0,0,0,8.49-1.92c5.42-2.14,9.69-6.45,12.91-11.33a77.67,77.67,0,0,0,7.69-16c2-5.6,3.73-11.33,5.21-17.12q1.11-4.33,2.1-8.71a54.35,54.35,0,0,1,2.34-8.68h0l.13-.26a5.26,5.26,0,0,1,2.94-3,10.15,10.15,0,0,1,4-.8,19.83,19.83,0,0,1,7.09,1.48l1.5.56a2.14,2.14,0,0,0,.4.13h.09a1,1,0,0,0,.22,0,23.88,23.88,0,0,0,2.84-.09c2.07-.16,4.21-.44,6.34-.77,4.27-.65,8.55-1.47,12.75-2.45,2.11-.5,4.2-1,6.22-1.63,1-.3,2-.63,2.95-1a16.5,16.5,0,0,0,2.47-1.09l.37-.21.28-.09a15.45,15.45,0,0,1,4.16-.59l3.27-.12a50.07,50.07,0,0,0,6.15-.67,54.91,54.91,0,0,0,11.89-3.59c1-.41,1.87-.83,2.93-1.29s2.07-.94,3.12-1.35c2.09-.86,4.19-1.67,6.31-2.41,4.24-1.5,8.54-2.79,12.82-4l6.38-1.72c2.09-.56,4.22-1.13,6-1.79.49-.16.82-.34,1.2-.49.16-.1.59-.37,1-.65.81-.58,1.65-1.23,2.48-1.9,1.67-1.34,3.33-2.74,5-4.15,6.59-5.69,13-11.65,19.29-17.7q4.69-4.56,9.21-9.27c3-3.14,5.91-6.36,8.55-9.68a36,36,0,0,0,3.4-5c1-2,2-3.94,3.08-5.88,2.09-3.91,4.26-7.76,6.44-11.59l3.3-5.73,1.61-2.82.36-.65c0-.08,0-.09,0-.05s0,.07,0,.05a.3.3,0,0,0,0-.11,7.18,7.18,0,0,0,.1-1.2c0-2-.16-4.15-.31-6.33a65.78,65.78,0,0,1-.28-6.87,11.77,11.77,0,0,1,.23-2.06,5.76,5.76,0,0,1,.17-.65l.13-.36.1-.22c.13-.31.27-.6.4-.86.55-1.08,1.1-2.05,1.66-3,1.11-1.92,2.23-3.8,3.27-5.67.51-.93,1-1.87,1.42-2.77a10.21,10.21,0,0,0,.87-2.62c.39-2,.6-4.14.86-6.33.12-1.1.25-2.21.43-3.36a14.41,14.41,0,0,1,1-3.82A4.1,4.1,0,0,0,396,339c.06-.44.1-.94.13-1.44.05-1,.06-2.1.07-3.2a50.3,50.3,0,0,1,.34-6.9c.05-.32.11-.64.19-1,.05-.17.08-.33.14-.5l.14-.47c.14-.44.27-.93.4-1.43.25-1,.47-2.06.68-3.12.85-4.26,1.48-8.59,2.52-13l.1-.42.07-.32a6.66,6.66,0,0,0,.12-.67,13.29,13.29,0,0,0,.12-1.45c0-1,0-2.05,0-3.14-.1-2.16-.23-4.43-.14-6.74a26,26,0,0,1,1.17-7,17.48,17.48,0,0,0,.73-5.91c-.08-4.21-.76-8.56-1.11-13a32.54,32.54,0,0,1,0-7,12,12,0,0,1,.43-1.87c.24-.7.42-1.1.62-1.62.39-1,.76-2,1.11-3A75.75,75.75,0,0,0,407,243.26a32.53,32.53,0,0,0,.43-6.27c-.07-2-.59-4.16-.89-6.38a36.21,36.21,0,0,1-.38-6.82c.08-2.26.29-4.48.52-6.68s.53-4.39.82-6.58a51.28,51.28,0,0,0,.52-6.42,107.13,107.13,0,0,0-.62-13c-.84-8.7-2.42-17.31-3.41-26.14-.11-1.12-.21-2.23-.24-3.38,0-.58,0-1.17.05-1.79s.19-1.19.29-1.71c.36-2.11.58-4.27.74-6.43s.23-4.35.27-6.53l0-1.63v-1.23c0-.13,0-.21,0-.34-.07-1-.24-2.11-.37-3.2-.29-2.18-.54-4.4-.65-6.65a23.92,23.92,0,0,1,.52-6.9,11.08,11.08,0,0,1,.66-1.76,8,8,0,0,0,.44-1.31,20.35,20.35,0,0,0,.44-3.09,55.41,55.41,0,0,0,.09-6.45,76,76,0,0,0-1.58-12.87c-.24-1-.51-2.08-.84-3.07a15.14,15.14,0,0,0-.55-1.43,6,6,0,0,0-.66-1.16,3.61,3.61,0,0,0-1-.71,14.71,14.71,0,0,0-1.38-.64c-1-.39-2-.73-3-1-4.13-1.23-8.43-2.12-12.72-3s-8.62-1.54-12.95-2.21c-8.67-1.31-17.38-2.45-26.1-3.3-2.18-.21-4.36-.41-6.54-.56s-4.35-.26-6.54-.36q-6.58-.29-13.17-.52L306,81.31,292.87,81q-26.36-.61-52.72-.93t-52.7-.12c-4.39,0-8.78.09-13.16.16l-6.58.11-6.58.18-6.57.18-6.56.28c-2.18.1-4.37.18-6.55.31l-6.52.45c-8.72.67-17.56,1.38-26.32,2s-17.54,1.17-26.28,1.84S64.87,86.8,56.32,88a107.29,107.29,0,0,0-12.51,2.4,31.85,31.85,0,0,0-5.52,2,9.43,9.43,0,0,0-1.95,1.24,2.66,2.66,0,0,0-.46.5C35.81,94.22,35.8,94.27,35.79,94.28Zm-7.38-1.64a8.58,8.58,0,0,1,1.26-2.81,10.26,10.26,0,0,1,1.77-1.91,16.13,16.13,0,0,1,3.61-2.27A38.45,38.45,0,0,1,42,83.29a117,117,0,0,1,13.42-2.36c8.87-1.09,17.69-1.69,26.49-2.23s17.59-1,26.36-1.41l13.15-.72,6.56-.41c2.19-.14,4.37-.3,6.6-.39l6.64-.33c2.21-.09,4.42-.12,6.62-.18l6.63-.15,6.61-.06,6.61,0,6.6,0c4.4,0,8.81,0,13.21.09,17.6.19,35.18.6,52.77,1.07s35.16,1.06,52.73,1.75L319.32,79c4.4.2,8.79.4,13.19.64,2.2.12,4.4.25,6.61.42s4.4.39,6.59.63q13.16,1.42,26.21,3.45c4.35.69,8.7,1.43,13,2.27s8.65,1.77,12.94,3.06c1.07.33,2.14.69,3.21,1.13a16.31,16.31,0,0,1,1.6.74,5.75,5.75,0,0,1,1.64,1.23,7.59,7.59,0,0,1,1,1.69c.25.55.45,1.1.64,1.64.36,1.1.65,2.19.9,3.29a76.32,76.32,0,0,1,1.66,13.27,58,58,0,0,1-.07,6.72,23.39,23.39,0,0,1-.5,3.44,8.7,8.7,0,0,1-.61,1.8,7.76,7.76,0,0,0-.49,1.33,21.83,21.83,0,0,0-.43,6.2c.1,2.14.35,4.3.64,6.46.14,1.1.31,2.16.4,3.36,0,.14,0,.34,0,.48v2.9c0,2.22-.12,4.43-.27,6.65s-.37,4.44-.75,6.67c-.11.56-.21,1.14-.26,1.54s0,1,0,1.5c0,1.05.13,2.12.23,3.2.48,4.31,1.21,8.65,1.86,13s1.28,8.72,1.75,13.12a109.12,109.12,0,0,1,.75,13.32,56,56,0,0,1-.49,6.72c-.28,2.17-.54,4.34-.76,6.51-.42,4.35-.77,8.62-.05,12.78.31,2.14.86,4.22,1,6.66a35.6,35.6,0,0,1-.37,6.87,77.39,77.39,0,0,1-3.13,13.08c-.35,1.06-.72,2.12-1.11,3.17a10.51,10.51,0,0,0-.82,2.81,29.26,29.26,0,0,0,.07,6.19c.39,4.29,1.16,8.64,1.3,13.23a27.59,27.59,0,0,1-.08,3.51c-.06.6-.14,1.21-.26,1.82-.07.31-.12.61-.22.92l-.24.87a22.29,22.29,0,0,0-.91,6c-.05,2.08.1,4.21.23,6.43.06,1.12.11,2.27.09,3.46,0,.6-.06,1.2-.14,1.84a8.48,8.48,0,0,1-.15,1l-.1.48-.09.39c-.91,4.12-1.5,8.52-2.3,12.89-.2,1.1-.41,2.2-.68,3.33-.13.56-.28,1.14-.47,1.74l-.09.33c0,.09-.05.2-.07.29a6.45,6.45,0,0,0-.12.66,46.64,46.64,0,0,0-.2,6.25c0,1.11,0,2.23,0,3.4,0,.59-.06,1.19-.14,1.84a7.83,7.83,0,0,1-.59,2.25,11.14,11.14,0,0,0-.58,2.56c-.15,1-.26,2.1-.37,3.18-.22,2.18-.39,4.39-.83,6.75A15.25,15.25,0,0,1,396.9,358c-.49,1.09-1,2.11-1.54,3.11-1.07,2-2.18,3.9-3.24,5.79-.52.95-1,1.89-1.47,2.78a6.83,6.83,0,0,0-.29.64l-.07.15v0s0,.1,0,.15a7.66,7.66,0,0,0-.1,1.22c0,1.93.17,4.13.35,6.29s.43,4.38.43,6.83a12.8,12.8,0,0,1-.18,2.08c0,.19-.1.45-.16.69s-.11.29-.17.43a2.33,2.33,0,0,1-.15.33l-.42.8-1.61,2.92L385,397.94c-2.12,3.83-4.21,7.67-6.22,11.55-1,1.93-2,3.87-2.95,5.83a40.92,40.92,0,0,1-3.9,6c-2.79,3.6-5.74,6.94-8.76,10.2s-6.12,6.44-9.25,9.57c-6.28,6.25-12.72,12.28-19.4,18.14-1.67,1.46-3.36,2.91-5.11,4.33-.88.72-1.77,1.42-2.74,2.13a15.29,15.29,0,0,1-1.79,1.15,17.43,17.43,0,0,1-1.84.8c-2.31.85-4.43,1.41-6.58,2l-6.34,1.75c-4.18,1.19-8.3,2.46-12.34,3.92-2,.72-4,1.5-6,2.33-1,.4-1.95.86-2.93,1.28s-2.06.94-3.1,1.37a62,62,0,0,1-13.3,4,59,59,0,0,1-6.95.76l-3.33.13a11.48,11.48,0,0,0-2.35.25l.65-.3a22.74,22.74,0,0,1-3.57,1.63c-1.13.41-2.24.77-3.34,1.1-2.21.67-4.41,1.22-6.61,1.74-4.4,1-8.8,1.88-13.26,2.57-2.24.34-4.48.64-6.82.83a30.52,30.52,0,0,1-3.78.09c-.16,0-.39,0-.6,0a6,6,0,0,1-.73-.12,9.36,9.36,0,0,1-1.19-.36L219,492c-2-.76-3.85-1.6-5.59-2.29a18.62,18.62,0,0,0-2.54-.87,6,6,0,0,0-2.9-.05l.14-.25h0a43.65,43.65,0,0,1-1.47,8.9q-1,4.39-2.13,8.77c-1.51,5.82-3.23,11.6-5.31,17.27a79.19,79.19,0,0,1-7.91,16.34,37.47,37.47,0,0,1-5.94,7,25.46,25.46,0,0,1-7.83,4.92,30.45,30.45,0,0,1-9,2,43.79,43.79,0,0,1-4.59.09,19.48,19.48,0,0,1-4.61-.76,18.86,18.86,0,0,1-8-4.75,28.6,28.6,0,0,1-5.32-7.5,63.41,63.41,0,0,1-5.3-17.33,148.6,148.6,0,0,1-1.87-18l.47.47h0a11.24,11.24,0,0,1-7.2-.25,21.24,21.24,0,0,1-6.34-3.7,27.74,27.74,0,0,1-7.89-11.86,51.29,51.29,0,0,1-2.77-13.65,59.2,59.2,0,0,1,.57-13.76l.28.51h0a111.25,111.25,0,0,1-11.27-5.94,42.37,42.37,0,0,1-10-8.12c-.36-.39-.71-.78-1-1.12a9.72,9.72,0,0,0-1.07-.94c-.79-.6-1.64-1.18-2.51-1.75-1.74-1.15-3.53-2.26-5.32-3.41-.9-.58-1.79-1.16-2.69-1.78A19.24,19.24,0,0,1,79.37,438a50.87,50.87,0,0,1-4.1-5.13l-1.85-2.55c-.3-.41-.62-.82-.9-1.17-.07-.07-.16-.19-.2-.23l-.22-.22c-.24-.24-.41-.43-.61-.65-1.47-1.64-2.81-3.32-4.11-5.05a99.29,99.29,0,0,1-7-10.88,80.93,80.93,0,0,1-9.08-24.41,39.61,39.61,0,0,0-3.54-11.19,33,33,0,0,0-3.21-4.84c-1.23-1.6-2.6-3.27-3.91-5a71.42,71.42,0,0,1-6.88-11.31,120.41,120.41,0,0,1-5-12A94.05,94.05,0,0,1,25,330.69a86.7,86.7,0,0,1-1.78-13.13A93.79,93.79,0,0,1,25.5,291.3a101.11,101.11,0,0,1,3.77-12.67c.77-2.07,1.61-4.12,2.57-6.18.24-.51.5-1,.76-1.55l.43-.81.25-.44.17-.29.09-.14a2.36,2.36,0,0,0-.2.34,3.31,3.31,0,0,0-.24.58s0,0,0,0l0-.46c0-.39,0-.85,0-1.32,0-3.89-.26-8.16-.49-12.33s-.52-8.43-.65-12.75c0-1.09-.06-2.18-.06-3.31a29.53,29.53,0,0,1,.18-3.78c0-.22,0-.41.11-.7s0-.25.11-.46l.08-.28c0-.13.05-.16,0-.11a.82.82,0,0,0,0,.14.22.22,0,0,1,0-.08c0-.22,0-.57,0-1,0-.83-.07-1.8-.16-2.77-.38-3.93-1-8.08-1.65-12.22-.32-2.1-.65-4.16-.94-6.41-.06-.6-.14-1.14-.18-1.92,0-.6,0-1.17-.05-1.73l0-3.23c0-2.09,0-4.11-.15-6a22.71,22.71,0,0,0-.32-2.58l-.14-.72a9.85,9.85,0,0,1-.2-1.3,10.18,10.18,0,0,1,.12-2.9,15.93,15.93,0,0,1,.61-2.17,3.86,3.86,0,0,0,.21-.68,1.53,1.53,0,0,0,0-.31c0-.09,0-.21-.05-.31l-.12-.42L29,186.68c-.25-.74-.41-1.36-.56-2-.28-1.21-.47-2.34-.65-3.46a121,121,0,0,1-1.17-13.13,100.58,100.58,0,0,1,.3-13.28,34.72,34.72,0,0,1,.53-3.55c.05-.31.12-.62.21-1s.16-.64.28-1a11,11,0,0,1,.4-1.11l.29-.69a13,13,0,0,0,.68-4.61,39.3,39.3,0,0,0-1.77-11.19,21.73,21.73,0,0,0-.91-2.44c-.08-.17-.16-.31-.23-.45l-.44-.74A9.19,9.19,0,0,1,25,125.4a15.3,15.3,0,0,1-.12-4.28,31.72,31.72,0,0,1,.57-3.59c.5-2.27,1.14-4.4,1.79-6.46l1-3a6.76,6.76,0,0,0,.26-1,9,9,0,0,0,.14-1.16,44.75,44.75,0,0,0-.16-5.8c-.07-1-.15-2.09-.21-3.23,0-.58-.06-1.15,0-1.81A12.43,12.43,0,0,1,28.41,92.64Z"/><path class="cls-1" d="M34.9,90.67A12.34,12.34,0,0,0,37.28,92c.86.4,1.76.71,2.64,1s1.81.58,2.74.8,1.83.49,2.77.67a93.22,93.22,0,0,0,11.31,1.71l2.85.28,2.87.18c1.9.14,3.82.18,5.74.25S72,97,73.94,97s3.83,0,5.75,0l11.61-.19c3.89,0,7.78,0,11.67,0l5.83.09,5.82.19q5.82.19,11.63.46c3.88.17,7.75.35,11.62.57l11.6.71c7.73.49,15.45,1,23.16,1.51s15.42,1,23.07,1.4c3.8.16,7.67.34,11.29.22l1.36,0,1.46-.07,3-.12,5.84-.15c31-.59,61.95-.16,92.89-.72,7.73-.13,15.47-.28,23.17-.61,1.9-.13,3.86-.18,5.72-.38.94-.11,1.83-.18,2.81-.33s2-.32,2.92-.41c3.88-.48,7.75-.77,11.61-1.06,7.73-.55,15.46-1,23.17-1.63,3.85-.28,7.7-.7,11.53-1.18A62.66,62.66,0,0,0,403.73,93l.3,1c-1,.2-1.92.46-2.88.64l-2.87.49-2.88.43-2.89.37c-3.84.52-7.69.91-11.53,1.36-7.7.84-15.41,1.6-23.09,2.5-3.83.45-7.68.9-11.46,1.53-.95.14-1.87.35-2.8.52s-2,.32-2.94.48c-2,.29-3.89.41-5.84.63-7.74.65-15.48,1.09-23.21,1.52q-46.41,2.4-92.77,4.36l-5.76.3c-1.92.13-3.67.27-5.8.34-4.12.19-8,0-11.92,0-7.81-.25-15.54-.81-23.28-1.31s-15.45-1.16-23.16-1.74l-23.11-1.74c-7.7-.6-15.4-1-23.09-1.55q-5.77-.36-11.54-.59l-5.76-.2L79.6,102c-1.95-.07-3.9-.2-5.85-.35s-3.89-.28-5.84-.5-3.89-.41-5.83-.71L59.17,100l-2.9-.52a85.54,85.54,0,0,1-11.44-2.79,46.16,46.16,0,0,1-5.52-2.12c-.9-.44-1.79-.87-2.64-1.39a12.9,12.9,0,0,1-2.48-1.8Z"/><path class="cls-1" d="M409,192.66a160.34,160.34,0,0,1,20.56,4.62,188,188,0,0,1,19.91,7c13,5.5,25.44,12.65,36,22.3A79.32,79.32,0,0,1,499.35,243a71.32,71.32,0,0,1,8.63,19.8,70.58,70.58,0,0,1,2.19,21.49,95.85,95.85,0,0,1-3.2,21.24l-.72,2.6-.35,1.3-.45,1.27-1.82,5.08-2.19,4.93a25.82,25.82,0,0,1-1.21,2.41L499,325.5A94,94,0,0,1,486.41,343a111.59,111.59,0,0,1-15.9,14.3,164.79,164.79,0,0,1-17.82,11.55c-6.14,3.49-12.42,6.68-18.77,9.69s-12.75,5.83-19.13,8.69c-12.75,5.68-25.57,11.32-37,19.33l-.61-.79c1.39-1.07,2.75-2.2,4.19-3.21s2.86-2.07,4.35-3,3-1.91,4.49-2.78,3-1.79,4.57-2.63c6.14-3.42,12.41-6.57,18.68-9.68,12.57-6.15,25.17-12.17,37.06-19.28s23.18-15.22,32.23-25.48a84.8,84.8,0,0,0,19.32-35.45,91.63,91.63,0,0,0,3.13-20.14A68.62,68.62,0,0,0,503.35,264a66.52,66.52,0,0,0-7.82-18.59,78.09,78.09,0,0,0-12.84-15.8c-9.94-9.43-21.85-16.78-34.4-22.62a190.92,190.92,0,0,0-39.45-13.32Z"/><path class="cls-1" d="M406.38,139.33a11.85,11.85,0,0,0,2.14,1.06c.77.31,1.55.6,2.34.88,1.58.56,3.17,1.08,4.77,1.6l9.62,3.1c6.42,2.06,12.83,4.2,19.19,6.5A357.08,357.08,0,0,1,482,168.17a197.72,197.72,0,0,1,35,21.64,113.15,113.15,0,0,1,15.19,14.45,89.73,89.73,0,0,1,6.47,8.47,71.16,71.16,0,0,1,5.28,9.43,62.89,62.89,0,0,1,3.68,10.31l2.47,9.87,2.33,9.92c.75,3.31,1.43,6.65,2.15,10,2.82,13.33,4.54,27.13,3.52,41.16a81.74,81.74,0,0,1-3.95,20.82c-.68,1.66-1.22,3.37-2,5L551,331.64l-.58,1.21c-.2.4-.45.77-.67,1.16a44.86,44.86,0,0,1-2.87,4.52l-1.57,2.17c-.52.69-1,1.31-1.55,2-4.12,5.28-8.24,10.68-12.54,15.92s-8.77,10.38-13.43,15.33a209.62,209.62,0,0,1-30.66,26.88,158.92,158.92,0,0,1-35.9,19.29c-3.18,1.19-6.4,2.32-9.66,3.29s-6.37,2.05-9.57,3.07l-2.38.78c-.78.28-1.55.62-2.33.92L422.61,430l-2.32.94c-.77.32-1.5.72-2.26,1.07l-4.5,2.2-2.24,1.1-2.17,1.25-4.33,2.51c-1.47.79-2.8,1.81-4.19,2.73l-4.13,2.82-3.92,3.1c-1.3,1.05-2.65,2-3.84,3.21l-3.67,3.4c-.31.28-.62.56-.91.85l-.86.92-1.7,1.83a98.32,98.32,0,0,0-6.48,7.62c-1,1.32-1.91,2.73-2.87,4.09-.47.69-1,1.36-1.41,2.07l-1.27,2.15a76.32,76.32,0,0,0-8.09,18.24c-.47,1.59-.81,3.23-1.21,4.84s-.54,3.28-.81,4.93a63.33,63.33,0,0,1-1.9,10,29.57,29.57,0,0,1-4.25,9.32,16.38,16.38,0,0,1-3.64,3.7,15.45,15.45,0,0,1-4.69,2.23,19.73,19.73,0,0,1-5.11.65,9.85,9.85,0,0,1-1.32,0,10.53,10.53,0,0,1-1.29-.28,14.09,14.09,0,0,1-2.42-.93,33.25,33.25,0,0,1-8.24-6c-4.82-4.74-8.72-10.64-10.28-17.3a25.06,25.06,0,0,1-.3-10.13c.46-3.33.84-6.68,1.22-10a58.07,58.07,0,0,1,1.72-10,49.34,49.34,0,0,1,4.06-9.33l.87.48a45.43,45.43,0,0,0-4.17,9.08,54,54,0,0,0-1.83,9.85c-.39,3.34-.79,6.69-1.26,10a24,24,0,0,0,.25,9.92c1.57,6.51,5.45,12.29,10.22,16.91a31.64,31.64,0,0,0,8.08,5.79,12.94,12.94,0,0,0,2.29.86,9.87,9.87,0,0,0,1.18.24,11.86,11.86,0,0,0,1.2,0,19,19,0,0,0,4.88-.69,14.73,14.73,0,0,0,4.36-2.13,15.82,15.82,0,0,0,3.36-3.52,28.58,28.58,0,0,0,4-9,63.9,63.9,0,0,0,1.72-9.84c.26-1.69.45-3.39.76-5.06s.72-3.33,1.18-5a77.77,77.77,0,0,1,8-18.71l1.26-2.21c.45-.73.94-1.42,1.41-2.13,1-1.4,1.87-2.84,2.88-4.2a100,100,0,0,1,6.5-7.86l1.72-1.89.85-.94c.3-.31.62-.59.92-.89l3.7-3.51c1.2-1.21,2.56-2.23,3.87-3.32l4-3.22,4.17-2.93c1.41-.95,2.75-2,4.24-2.83l4.38-2.62,2.19-1.3,2.27-1.15,4.56-2.3c.76-.37,1.5-.79,2.28-1.13l2.35-1,4.7-2c.79-.32,1.57-.67,2.36-1l2.41-.83c3.2-1.09,6.45-2.24,9.61-3.28s6.31-2.16,9.41-3.38a155.74,155.74,0,0,0,34.78-19.49,199,199,0,0,0,29.41-27q6.69-7.45,12.83-15.38c4.13-5.27,8.06-10.68,12.09-16.12.5-.68,1-1.37,1.51-2l1.35-2a38,38,0,0,0,2.44-4.06c.19-.35.4-.68.56-1l.47-1.09.94-2.17c.33-.71.5-1.5.76-2.24l.7-2.27a62,62,0,0,0,1.58-19.08c0-1.6-.21-3.23-.34-4.85s-.27-3.24-.49-4.86l-.58-4.87c-.26-1.63-.49-3.25-.72-4.88l-.33-2.44-.4-2.44c-.26-1.63-.52-3.26-.75-4.9l-1.64-9.81c-.62-3.27-1.21-6.55-1.87-9.82l-2.06-9.8-2.21-9.8a53.2,53.2,0,0,0-2.9-8.76,62.73,62.73,0,0,0-4.31-8.34,76.64,76.64,0,0,0-5.53-7.76,105.75,105.75,0,0,0-13.6-13.84A195.47,195.47,0,0,0,479,173.81,397.91,397.91,0,0,0,443,156.23c-6.17-2.66-12.38-5.23-18.62-7.77-3.12-1.28-6.25-2.53-9.36-3.84-1.56-.66-3.11-1.32-4.66-2-.77-.35-1.54-.71-2.31-1.1a12.42,12.42,0,0,1-2.26-1.39Z"/><path class="cls-1" d="M116.41,462.34l19.5,8.53-.65.67h0a4.24,4.24,0,0,1-.85-3.24,5.4,5.4,0,0,1,1.58-3.06,12,12,0,0,1,5.57-2.9,42.71,42.71,0,0,1,11.71-1,157.25,157.25,0,0,1,22.88,2.88c3.77.7,7.53,1.47,11.27,2.39a82.65,82.65,0,0,1,11.06,3.44,30,30,0,0,1,5.23,2.67,13.4,13.4,0,0,1,4.27,4.21,10,10,0,0,1,1.34,5.87,24.24,24.24,0,0,1-1.21,5.73l-1-.29a23.35,23.35,0,0,0,1-5.49,8.71,8.71,0,0,0-1.29-5.1,12.08,12.08,0,0,0-3.93-3.65,31.41,31.41,0,0,0-5-2.4A81.72,81.72,0,0,0,187,468.44c-3.7-.85-7.44-1.55-11.2-2.18-7.51-1.24-15-2.5-22.58-2.69a41.39,41.39,0,0,0-11.06,1,10,10,0,0,0-4.49,2.3,6.05,6.05,0,0,0-1.49,4.28h0l.47,1.16-1.13-.49L116,463.26Z"/><path class="cls-1" d="M136.21,471.31c.52,2.85.87,5.7,1.17,8.55s.54,5.7.75,8.55l.62,8.53c.11,1.42.21,2.84.35,4.24.07.7.15,1.4.25,2.09a8.51,8.51,0,0,0,.44,1.91l-.84.56a7.61,7.61,0,0,1-1-2.11c-.26-.71-.44-1.42-.63-2.13-.35-1.42-.65-2.84-.88-4.28-.49-2.85-.8-5.72-1-8.59s-.39-5.75-.43-8.63a80.72,80.72,0,0,1,.28-8.65Z"/></g></svg>